<svg xmlns="http://www.w3.org/2000/svg" width="42" height="39" viewBox="0 0 42 39">
  <metadata><?xpacket begin="﻿" id="W5M0MpCehiHzreSzNTczkc9d"?>
<x:xmpmeta xmlns:x="adobe:ns:meta/" x:xmptk="Adobe XMP Core 5.6-c140 79.160451, 2017/05/06-01:08:21        ">
   <rdf:RDF xmlns:rdf="http://www.w3.org/1999/02/22-rdf-syntax-ns#">
      <rdf:Description rdf:about=""/>
   </rdf:RDF>
</x:xmpmeta>
                                                                                                    
                                                                                                    
                                                                                                    
                                                                                                    
                                                                                                    
                                                                                                    
                                                                                                    
                                                                                                    
                                                                                                    
                                                                                                    
                                                                                                    
                                                                                                    
                                                                                                    
                                                                                                    
                                                                                                    
                                                                                                    
                                                                                                    
                                                                                                    
                                                                                                    
                                                                                                    
                           
<?xpacket end="w"?></metadata>
<defs>
    <style>
      .cls-1 {
        fill: #8e8e8e;
      }

      .cls-1, .cls-2, .cls-3, .cls-4 {
        fill-rule: evenodd;
      }

      .cls-2 {
        fill: #656565;
      }

      .cls-3 {
        fill: #d5d5d5;
      }

      .cls-4 {
        fill: #b7b7b7;
      }
    </style>
  </defs>
  <path id="brilliant" class="cls-1" d="M20,13a5.665,5.665,0,0,1,2,0V37c-0.333,0-.667-1-1-1h0C19.294,31.988,20.391,19.062,20,13Z"/>
  <path id="Заливка_цветом_1" data-name="Заливка цветом 1" class="cls-2" d="M10,1H32c0,0.333-1,1.667-1,2-0.707-1.056-5.333-1.667-6-1C19.613,1.1,7.022,3.053,10,1ZM32,2a17.994,17.994,0,0,1,4,5c-0.333,0-1.667-2-2-2,0-.333-1-0.667-1-1C32.2,2.979,32.645,3.726,32,2ZM10,2c0.8,1.021-1.645,1.274-1,3C8.667,5,5.333,8,5,8,5,7.333,10,2.667,10,2Zm1,0c1.624,1.35,8.472,7.663,9,10-0.333,0-2.667-3-3-3,0-.333-1-0.667-1-1C15.2,6.979,11.645,3.726,11,2ZM30,2c0.859,1.883-4.526,5.738-5,8-0.333,0-2.667,2-3,2C20.656,12.046,29.667,3,30,2Zm6,5c1.624,1.35,2.121,2.64,3,5-1.405,1.147.364,0.739,1,2,1.012-2.339-1.545-4.856-2-4A8.291,8.291,0,0,1,36,7ZM5,8c0.8,1.021-.645.274,0,2-0.333,0-2.667,2-3,2C2,11.333,5,8.667,5,8ZM2,12c0.171-.429,27.641.34,37,0,0.8,1.021,1.355.274,2,2-0.333.333-1.667-1.333-2-1-7.6.456-38.341-.722-37,0.47C-1.373,12.818,5.62,9.96,2,12Zm0,2c0.8,1.021,3.355,3.274,4,5-0.333,0-2.667-2-3-2C3,16.333,2,14.667,2,14Zm38,0c0.8,1.021-1.883,3.217-2,4-0.333,0-1.667,1-2,1C36,18.333,40,14.667,40,14ZM6,19a8.29,8.29,0,0,1,2,3H7C7,21.333,6,19.667,6,19Zm30,0c0.859,1.883-1.526,1.738-2,4-0.333,0-1.667,1-2,1C32.333,23,35.667,20,36,19ZM8,22c0.8,1.021,4.355,4.274,5,6-0.333,0-1.667-1-2-1C11,26.333,8,22.667,8,22Zm24,2c0.859,1.883-1.526,1.738-2,4-0.333,0-1.667,1-2,1C28.333,28,31.667,25,32,24ZM13,28c0.8,1.021,5.355,5.274,6,7-0.333,0-3.667-3-4-3C15,31.333,13,28.667,13,28Zm15,1c0.859,1.883-1.526,1.738-2,4-0.333,0-2.667,2-3,2C23.333,34,27.667,30,28,29Zm-9,6c3.366,0.737,2.874-.614,4,2l-1,1c-1.754-.631-0.971-0.193-2-1C19.2,35.979,19.645,36.726,19,35Z"/>
  <path id="Заливка_цветом_2" data-name="Заливка цветом 2" class="cls-3" d="M10,0c6.671,0.466,23.627-1.152,22,1C26.024,0.4,5.836,1.9,10,0Zm3,2C17.692,1.843,31.2.317,29,3,24.308,3.157,10.235,3.9,13,2ZM30,3a5.624,5.624,0,0,0,2,0V4C30.246,3.369,29.948,4.627,30,3Z"/>
  <path id="Заливка_цветом_3" data-name="Заливка цветом 3" class="cls-4" d="M20,11h2v1C20.519,12.009,20.05,12.713,20,11ZM0,12c1.763,0.13.895-1.107,1,2H0V12Zm41,0c0.42,0.968.909-1.61,1,2H41V12ZM3,13c4.9-.158,20.157-0.969,17,1C14.31,14.144,2.276,14.55,3,13Zm19,0H39v2c-0.333,0-1.3.219-1-1C34.274,13.846,19.526,14.836,22,13ZM20,38a16.707,16.707,0,0,0,2,0v1C20.246,38.369,20.162,39.824,20,38Z"/>
</svg>
